<svg width="16" height="16" viewBox="0 0 16 16" fill="none" xmlns="http://www.w3.org/2000/svg">
<path d="M7.28695 1.54169C7.51141 0.819438 8.48859 0.819438 8.71305 1.54169L9.85156 5.20561C9.95188 5.5286 10.2398 5.74729 10.5645 5.74729H14.2489C14.9751 5.74729 15.2771 6.71907 14.6895 7.16542L11.7088 9.42989C11.4461 9.62948 11.3361 9.98335 11.4365 10.3063L12.575 13.9703C12.7994 14.6925 12.0089 15.2931 11.4213 14.8467L8.44068 12.5823C8.17791 12.3827 7.82209 12.3827 7.55932 12.5823L4.57867 14.8467C3.99111 15.2931 3.20055 14.6925 3.42498 13.9703L4.56349 10.3063C4.66386 9.98335 4.5539 9.62948 4.29114 9.42989L1.31048 7.16542C0.722918 6.71907 1.02489 5.74729 1.75115 5.74729H5.43545C5.76024 5.74729 6.0481 5.5286 6.14847 5.20561L7.28695 1.54169Z" fill="black" stroke="black" stroke-linecap="round" stroke-linejoin="round"/>
</svg>
