<svg width="26" height="26" viewBox="0 0 26 26" fill="none" xmlns="http://www.w3.org/2000/svg">
<path d="M5.54779 19.2873C7.74873 18.0433 10.2915 17.3333 13 17.3333C15.7086 17.3333 18.2512 18.0433 20.4523 19.2873M16.25 10.8333C16.25 12.6283 14.795 14.0833 13 14.0833C11.205 14.0833 9.75 12.6283 9.75 10.8333C9.75 9.03841 11.205 7.58333 13 7.58333C14.795 7.58333 16.25 9.03841 16.25 10.8333ZM22.75 13C22.75 18.3848 18.3848 22.75 13 22.75C7.61523 22.75 3.25 18.3848 3.25 13C3.25 7.61523 7.61523 3.25 13 3.25C18.3848 3.25 22.75 7.61523 22.75 13Z" stroke="#202020" stroke-width="2" stroke-linecap="round" stroke-linejoin="round"/>
</svg>
