<svg width="32" height="32" viewBox="0 0 32 32" fill="none" xmlns="http://www.w3.org/2000/svg">
<path d="M5.33333 8.00004C5.33333 6.52728 6.52723 5.33337 7.99999 5.33337H10.6667C12.1394 5.33337 13.3333 6.52728 13.3333 8.00004V10.6667C13.3333 12.1395 12.1394 13.3334 10.6667 13.3334H7.99999C6.52723 13.3334 5.33333 12.1395 5.33333 10.6667V8.00004Z" stroke="#2548C4" stroke-width="2" stroke-linecap="round" stroke-linejoin="round"/>
<path d="M18.6667 8.00004C18.6667 6.52728 19.8605 5.33337 21.3333 5.33337H24C25.4728 5.33337 26.6667 6.52728 26.6667 8.00004V10.6667C26.6667 12.1395 25.4728 13.3334 24 13.3334H21.3333C19.8605 13.3334 18.6667 12.1395 18.6667 10.6667V8.00004Z" stroke="#2548C4" stroke-width="2" stroke-linecap="round" stroke-linejoin="round"/>
<path d="M5.33333 21.3333C5.33333 19.8605 6.52723 18.6666 7.99999 18.6666H10.6667C12.1394 18.6666 13.3333 19.8605 13.3333 21.3333V24C13.3333 25.4728 12.1394 26.6666 10.6667 26.6666H7.99999C6.52723 26.6666 5.33333 25.4728 5.33333 24V21.3333Z" stroke="#2548C4" stroke-width="2" stroke-linecap="round" stroke-linejoin="round"/>
<path d="M18.6667 21.3333C18.6667 19.8605 19.8605 18.6666 21.3333 18.6666H24C25.4728 18.6666 26.6667 19.8605 26.6667 21.3333V24C26.6667 25.4728 25.4728 26.6666 24 26.6666H21.3333C19.8605 26.6666 18.6667 25.4728 18.6667 24V21.3333Z" stroke="#2548C4" stroke-width="2" stroke-linecap="round" stroke-linejoin="round"/>
</svg>
