<svg width="202" height="34" viewBox="0 0 202 34" fill="none" xmlns="http://www.w3.org/2000/svg">
<path fill-rule="evenodd" clip-rule="evenodd" d="M18.2073 2.01891L27.8311 3.43881L33.0767 6.30006L38.4397 13.0826L39.9661 16.746C40.0277 16.8939 40.03 17.0599 39.9725 17.2094L38.5082 21.0165C38.446 21.1784 38.3191 21.307 38.1581 21.3714L36.1208 22.1863L35.8461 24.6592C35.8255 24.8439 35.7237 25.0098 35.5682 25.1116L31.2296 27.9541C31.155 28.003 31.0709 28.0353 30.9828 28.0488L26.9088 28.6756L24.4928 27.6018L24.86 33.1107C24.9005 33.7187 24.1343 34.0175 23.7526 33.5426L18.0782 26.4843H12.9261C12.7351 26.4843 12.5547 26.3967 12.4366 26.2468L9.85374 22.9685L6.29517 23.943C6.12116 23.9907 5.93504 23.9606 5.78492 23.8605L1.10358 20.7396L0.299713 10.6109L2.89593 8.50149L5.27538 5.64615L18.2073 2.01891ZM3.23547 9.02854L1.05797 10.7978L6.11395 17.215L11.7648 13.6403L7.50034 8.74492L3.23547 9.02854ZM8.27359 8.68385L14.8158 8.14648L12.1745 13.1619L8.27359 8.68385ZM12.1789 14.1157L6.50167 17.7071L10.0774 22.2455L17.1033 19.7687L12.1789 14.1157ZM17.7356 19.5459L12.6134 13.6658L15.4813 8.22015L24.2386 13.23L22.7188 17.7892L17.7356 19.5459ZM17.5437 20.2743L10.4848 22.7626L12.9261 25.8611H18.1462L21.0123 24.2561L17.5437 20.2743ZM21.4408 24.7303L18.7012 26.2645L24.2382 33.1521L23.8442 27.2411L21.4408 24.7303ZM24.3302 26.8476L26.7766 27.9349L28.4987 23.3646L22.2245 24.2915L22.0024 24.4158L24.3302 26.8476ZM21.9361 23.7391C21.9978 23.7069 22.0645 23.6852 22.1334 23.675L28.7598 22.6961L32.0088 15.1751L23.2136 18.2755L22.7356 19.7094L21.9361 23.7391ZM22.4693 18.5379L18.1759 20.0514L21.317 23.6572L22.132 19.5496L22.4693 18.5379ZM23.4632 17.5268L32.1558 14.4625L29.8275 9.22403L24.882 13.2704L23.4632 17.5268ZM25.251 12.1633L29.5651 8.63358L27.7722 4.59961L25.251 12.1633ZM28.389 4.45293L30.0727 8.24136L32.2958 6.58393L28.389 4.45293ZM32.8152 6.97398L30.3322 8.8252L32.7558 14.2783L37.6252 13.0572L32.8152 6.97398ZM37.9842 13.6096L33.0127 14.8563L35.9946 21.5656L37.9266 20.7928L39.3909 16.9857L37.9842 13.6096ZM35.3804 21.7181L32.5815 15.4205L29.4849 22.589L35.3804 21.7181ZM29.2039 23.2604L27.4313 27.9647L30.8881 27.4329L35.2267 24.5903L35.4775 22.3337L29.2039 23.2604ZM27.3176 3.99295L18.4004 2.6773L15.7718 7.66844L24.4396 12.6271L27.3176 3.99295ZM15.16 7.49295L7.76529 8.10035L6.01138 6.08692L17.6144 2.83242L15.16 7.49295ZM5.45801 6.4004L6.98609 8.15458L3.82078 8.36508L5.45801 6.4004ZM9.43503 22.4371L5.97222 18.042L1.97421 20.5711L6.13058 23.342L9.43503 22.4371ZM1.67197 20.0249L1.01527 11.7505L5.5845 17.5499L1.67197 20.0249Z" fill="#2548C4"/>
<path d="M3.42738 20.72C3.42738 21.6665 2.66013 22.4337 1.71369 22.4337C0.767244 22.4337 0 21.6665 0 20.72C0 19.7736 0.767244 19.0063 1.71369 19.0063C2.66013 19.0063 3.42738 19.7736 3.42738 20.72Z" fill="#2548C4"/>
<path d="M14.9557 21.3432C14.9557 22.1176 14.328 22.7453 13.5536 22.7453C12.7792 22.7453 12.1515 22.1176 12.1515 21.3432C12.1515 20.5688 12.7792 19.9411 13.5536 19.9411C14.328 19.9411 14.9557 20.5688 14.9557 21.3432Z" fill="#2548C4"/>
<path d="M14.9558 13.5537C14.9558 15.0164 13.7701 16.2021 12.3074 16.2021C10.8447 16.2021 9.65898 15.0164 9.65898 13.5537C9.65898 12.091 10.8447 10.9053 12.3074 10.9053C13.7701 10.9053 14.9558 12.091 14.9558 13.5537Z" fill="#2548C4"/>
<path d="M34.8969 14.9558C34.8969 16.3325 33.7809 17.4484 32.4043 17.4484C31.0276 17.4484 29.9117 16.3325 29.9117 14.9558C29.9117 13.5792 31.0276 12.4632 32.4043 12.4632C33.7809 12.4632 34.8969 13.5792 34.8969 14.9558Z" fill="#2548C4"/>
<path d="M24.6147 18.0716C24.6147 19.1041 23.7777 19.9411 22.7452 19.9411C21.7127 19.9411 20.8757 19.1041 20.8757 18.0716C20.8757 17.0392 21.7127 16.2022 22.7452 16.2022C23.7777 16.2022 24.6147 17.0392 24.6147 18.0716Z" fill="#2548C4"/>
<path d="M34.8969 6.54319C34.8969 7.57567 34.0599 8.41267 33.0274 8.41267C31.9949 8.41267 31.1579 7.57567 31.1579 6.54319C31.1579 5.51071 31.9949 4.67371 33.0274 4.67371C34.0599 4.67371 34.8969 5.51071 34.8969 6.54319Z" fill="#2548C4"/>
<path d="M21.1874 1.86948C21.1874 2.90196 20.3504 3.73895 19.3179 3.73895C18.2854 3.73895 17.4484 2.90196 17.4484 1.86948C17.4484 0.836993 18.2854 0 19.3179 0C20.3504 0 21.1874 0.836993 21.1874 1.86948Z" fill="#2548C4"/>
<path d="M7.47787 5.45265C7.47787 6.3991 6.71062 7.16634 5.76418 7.16634C4.81774 7.16634 4.05049 6.3991 4.05049 5.45265C4.05049 4.50621 4.81774 3.73896 5.76418 3.73896C6.71062 3.73896 7.47787 4.50621 7.47787 5.45265Z" fill="#2548C4"/>
<path d="M31.1579 22.7453C31.1579 23.7778 30.3209 24.6148 29.2885 24.6148C28.256 24.6148 27.419 23.7778 27.419 22.7453C27.419 21.7128 28.256 20.8758 29.2885 20.8758C30.3209 20.8758 31.1579 21.7128 31.1579 22.7453Z" fill="#2548C4"/>
<path d="M58.1762 5.69713C59.549 5.69713 60.8361 5.945 62.0373 6.44076C63.2386 6.93651 64.2873 7.62294 65.1835 8.50004C66.0796 9.37714 66.7851 10.4163 67.2999 11.6176C67.8338 12.7997 68.1008 14.0773 68.1008 15.4501C68.1008 16.842 67.8338 18.1386 67.2999 19.3399C66.7851 20.5221 66.0796 21.5517 65.1835 22.4288C64.2873 23.2868 63.2386 23.9637 62.0373 24.4595C60.8361 24.9552 59.549 25.2031 58.1762 25.2031C56.8033 25.2031 55.5067 24.9552 54.2864 24.4595C53.0852 23.9637 52.0365 23.2773 51.1403 22.4002C50.2632 21.5231 49.5672 20.4935 49.0524 19.3113C48.5376 18.11 48.2802 16.823 48.2802 15.4501C48.2802 14.0773 48.5376 12.7997 49.0524 11.6176C49.5672 10.4163 50.2727 9.37714 51.1689 8.50004C52.0651 7.62294 53.1138 6.93651 54.315 6.44076C55.5163 5.945 56.8033 5.69713 58.1762 5.69713ZM58.2048 8.47144C57.2323 8.47144 56.3266 8.65258 55.4877 9.01486C54.6678 9.35807 53.9527 9.83476 53.3426 10.4449C52.7515 11.0551 52.2843 11.7892 51.9411 12.6472C51.5979 13.5052 51.4263 14.43 51.4263 15.4215C51.4263 16.4321 51.5979 17.3664 51.9411 18.2244C52.2843 19.0825 52.7515 19.8261 53.3426 20.4553C53.9527 21.0655 54.6678 21.5517 55.4877 21.914C56.3266 22.2572 57.2323 22.4288 58.2048 22.4288C59.1772 22.4288 60.0734 22.2572 60.8933 21.914C61.7132 21.5517 62.4282 21.0655 63.0384 20.4553C63.6485 19.8261 64.1252 19.0825 64.4684 18.2244C64.8116 17.3664 64.9832 16.4321 64.9832 15.4215C64.9832 14.43 64.8116 13.5148 64.4684 12.6758C64.1252 11.8178 63.6485 11.0837 63.0384 10.4735C62.4282 9.84429 61.7132 9.35807 60.8933 9.01486C60.0734 8.65258 59.1772 8.47144 58.2048 8.47144Z" fill="#2548C4"/>
<path d="M78.548 10.5307C79.3679 10.5307 80.102 10.6737 80.7503 10.9597C81.3986 11.2267 81.9515 11.608 82.4092 12.1038C82.8668 12.5805 83.21 13.162 83.4388 13.8485C83.6867 14.5349 83.8106 15.288 83.8106 16.1079V24.8885H80.7789V16.5084C80.7789 15.5359 80.5024 14.7542 79.9495 14.1631C79.4156 13.5529 78.6815 13.2478 77.7472 13.2478C76.8129 13.2478 76.0406 13.5529 75.4305 14.1631C74.8394 14.7542 74.5439 15.5359 74.5439 16.5084V24.8885H71.5407V10.8453H74.315V12.2754C74.8108 11.7224 75.4114 11.2934 76.1169 10.9883C76.8415 10.6833 77.6518 10.5307 78.548 10.5307Z" fill="#2548C4"/>
<path d="M94.5416 10.5307C95.8764 10.5307 97.049 10.8263 98.0596 11.4174C99.0702 12.0084 99.8805 12.7997 100.491 13.7913L98.3742 15.4501C97.8975 14.8018 97.3541 14.287 96.7439 13.9057C96.1528 13.5052 95.4283 13.305 94.5703 13.305C93.941 13.305 93.3499 13.429 92.797 13.6769C92.2631 13.9057 91.8055 14.2298 91.4241 14.6493C91.0428 15.0497 90.7377 15.5264 90.5089 16.0793C90.2991 16.6323 90.1943 17.2234 90.1943 17.8526C90.1943 18.5009 90.2991 19.1111 90.5089 19.6831C90.7377 20.236 91.0428 20.7223 91.4241 21.1418C91.8055 21.5422 92.2631 21.8568 92.797 22.0856C93.3499 22.3144 93.941 22.4288 94.5703 22.4288C95.4283 22.4288 96.1528 22.2381 96.7439 21.8568C97.335 21.4754 97.8689 20.9606 98.3456 20.3123L100.462 21.9426C99.8519 22.9341 99.0416 23.7254 98.031 24.3165C97.0204 24.9076 95.8573 25.2031 94.5416 25.2031C93.512 25.2031 92.5396 25.0124 91.6243 24.6311C90.7282 24.2497 89.9369 23.7349 89.2504 23.0866C88.5831 22.4193 88.0587 21.6375 87.6774 20.7413C87.296 19.8452 87.1053 18.8823 87.1053 17.8526C87.1053 16.823 87.296 15.8696 87.6774 14.9925C88.0587 14.0963 88.5831 13.3241 89.2504 12.6758C89.9369 12.0084 90.7282 11.4841 91.6243 11.1027C92.5396 10.7214 93.512 10.5307 94.5416 10.5307Z" fill="#2548C4"/>
<path d="M110.043 10.5307C111.073 10.5307 112.036 10.7214 112.932 11.1027C113.828 11.4841 114.61 12.0084 115.277 12.6758C115.964 13.3241 116.498 14.0963 116.879 14.9925C117.279 15.8696 117.48 16.823 117.48 17.8526C117.48 18.8823 117.279 19.8452 116.879 20.7413C116.498 21.6375 115.964 22.4193 115.277 23.0866C114.61 23.7349 113.819 24.2497 112.903 24.6311C112.007 25.0124 111.044 25.2031 110.015 25.2031C108.985 25.2031 108.022 25.0124 107.126 24.6311C106.23 24.2497 105.438 23.7349 104.752 23.0866C104.085 22.4193 103.56 21.6375 103.179 20.7413C102.798 19.8452 102.607 18.8823 102.607 17.8526C102.607 16.823 102.798 15.8696 103.179 14.9925C103.56 14.0963 104.085 13.3241 104.752 12.6758C105.438 12.0084 106.23 11.4841 107.126 11.1027C108.041 10.7214 109.014 10.5307 110.043 10.5307ZM110.043 13.2764C109.414 13.2764 108.823 13.4004 108.27 13.6482C107.736 13.8771 107.278 14.2012 106.897 14.6207C106.516 15.0211 106.22 15.5073 106.01 16.0793C105.801 16.6323 105.696 17.2329 105.696 17.8812C105.696 18.5295 105.801 19.1301 106.01 19.6831C106.22 20.236 106.516 20.7223 106.897 21.1418C107.298 21.5422 107.755 21.8568 108.27 22.0856C108.804 22.3144 109.385 22.4288 110.015 22.4288C110.644 22.4288 111.225 22.3144 111.759 22.0856C112.293 21.8568 112.751 21.5422 113.132 21.1418C113.533 20.7223 113.838 20.236 114.047 19.6831C114.276 19.1301 114.391 18.5295 114.391 17.8812C114.391 17.2329 114.276 16.6323 114.047 16.0793C113.838 15.5073 113.533 15.0211 113.132 14.6207C112.751 14.2012 112.293 13.8771 111.759 13.6482C111.225 13.4004 110.653 13.2764 110.043 13.2764Z" fill="#2548C4"/>
<path d="M134.937 8.72885H128.588V24.8885H125.556V8.72885H119.206V6.01174H134.937V8.72885Z" fill="#2548C4"/>
<path d="M144.49 10.7023C144.738 10.7023 144.948 10.7214 145.119 10.7595C145.31 10.7786 145.482 10.8072 145.634 10.8453V13.5052H144.719C144.166 13.5052 143.632 13.591 143.117 13.7627C142.621 13.9152 142.183 14.1535 141.801 14.4777C141.439 14.8018 141.144 15.2118 140.915 15.7075C140.705 16.1842 140.6 16.7467 140.6 17.395V24.8885H137.597V10.8453H140.371V12.733C140.867 12.0657 141.468 11.5604 142.173 11.2171C142.898 10.8739 143.67 10.7023 144.49 10.7023Z" fill="#2548C4"/>
<path d="M151.326 24.8885H148.323V10.8453H151.326V24.8885ZM149.838 3.60924C150.391 3.60924 150.868 3.80945 151.268 4.20986C151.688 4.59121 151.898 5.05837 151.898 5.61132C151.898 6.16428 151.688 6.63143 151.268 7.01278C150.868 7.39413 150.391 7.5848 149.838 7.5848C149.266 7.5848 148.78 7.39413 148.38 7.01278C147.979 6.63143 147.779 6.16428 147.779 5.61132C147.779 5.05837 147.979 4.59121 148.38 4.20986C148.78 3.80945 149.266 3.60924 149.838 3.60924Z" fill="#2548C4"/>
<path d="M161.045 10.5307C161.903 10.5307 162.685 10.6547 163.391 10.9025C164.096 11.1504 164.697 11.5222 165.193 12.018C165.707 12.4947 166.108 13.1048 166.394 13.8485C166.68 14.573 166.823 15.4215 166.823 16.394V24.8885H164.02V23.3154C163.524 23.9065 162.895 24.3737 162.132 24.7169C161.37 25.041 160.502 25.2031 159.53 25.2031C158.786 25.2031 158.109 25.1078 157.499 24.9171C156.908 24.7264 156.393 24.45 155.954 24.0877C155.535 23.7254 155.211 23.2964 154.982 22.8006C154.753 22.3049 154.639 21.7519 154.639 21.1418C154.639 19.9024 155.106 18.9299 156.04 18.2244C156.974 17.4999 158.233 17.1376 159.816 17.1376H163.791V16.2224C163.791 15.2499 163.534 14.5063 163.019 13.9915C162.504 13.4766 161.76 13.2192 160.788 13.2192C159.968 13.2192 159.253 13.4004 158.643 13.7627C158.033 14.1249 157.442 14.6398 156.87 15.3071L155.154 13.5338C155.878 12.5042 156.746 11.751 157.756 11.2744C158.767 10.7786 159.863 10.5307 161.045 10.5307ZM160.159 22.8864C160.654 22.8864 161.122 22.8102 161.56 22.6576C161.999 22.486 162.38 22.2572 162.704 21.9712C163.047 21.6661 163.314 21.3134 163.505 20.9129C163.696 20.4935 163.791 20.0454 163.791 19.5687V19.3113H160.187C159.387 19.3113 158.767 19.4543 158.328 19.7403C157.909 20.0263 157.699 20.4553 157.699 21.0273C157.699 21.6375 157.937 22.1047 158.414 22.4288C158.891 22.7339 159.472 22.8864 160.159 22.8864Z" fill="#2548C4"/>
<path d="M177.009 10.5307C178.076 10.5307 179.039 10.7405 179.897 11.1599C180.755 11.5604 181.451 12.1229 181.985 12.8474V10.8453H184.788V23.4298C184.788 24.5548 184.617 25.5463 184.273 26.4044C183.93 27.2815 183.444 28.006 182.815 28.5781C182.204 29.1691 181.47 29.6077 180.612 29.8937C179.754 30.1988 178.801 30.3513 177.752 30.3513C176.246 30.3513 174.93 30.0844 173.805 29.5505C172.68 29.0166 171.746 28.3969 171.002 27.6914L172.633 25.6035C173.338 26.1565 174.082 26.6236 174.864 27.005C175.645 27.4054 176.551 27.6056 177.581 27.6056C178.839 27.6056 179.85 27.2719 180.612 26.6046C181.394 25.9563 181.785 24.9552 181.785 23.6015V22.6004C181.232 23.2487 180.536 23.7445 179.697 24.0877C178.877 24.4309 177.981 24.6025 177.009 24.6025C176.036 24.6025 175.13 24.4309 174.292 24.0877C173.472 23.7445 172.757 23.2678 172.146 22.6576C171.536 22.0284 171.06 21.2848 170.716 20.4267C170.373 19.5496 170.202 18.5962 170.202 17.5666C170.202 16.537 170.373 15.5931 170.716 14.7351C171.06 13.858 171.536 13.1144 172.146 12.5042C172.757 11.875 173.472 11.3888 174.292 11.0455C175.13 10.7023 176.036 10.5307 177.009 10.5307ZM177.581 13.2192C176.97 13.2192 176.408 13.3241 175.893 13.5338C175.378 13.7436 174.921 14.0391 174.52 14.4205C174.139 14.7828 173.834 15.2404 173.605 15.7933C173.395 16.3272 173.29 16.9183 173.29 17.5666C173.29 18.234 173.395 18.8441 173.605 19.3971C173.834 19.931 174.139 20.3886 174.52 20.7699C174.921 21.1513 175.378 21.4468 175.893 21.6566C176.408 21.8663 176.97 21.9712 177.581 21.9712C178.115 21.9712 178.629 21.8854 179.125 21.7138C179.64 21.5422 180.098 21.2752 180.498 20.9129C180.898 20.5507 181.213 20.093 181.442 19.5401C181.69 18.9681 181.814 18.3007 181.814 17.538C181.814 16.7753 181.69 16.127 181.442 15.5931C181.194 15.0402 180.87 14.5921 180.469 14.2489C180.069 13.8866 179.611 13.6292 179.097 13.4766C178.601 13.305 178.095 13.2192 177.581 13.2192Z" fill="#2548C4"/>
<path d="M195.508 10.5307C196.442 10.5307 197.309 10.6928 198.11 11.0169C198.911 11.3411 199.598 11.7892 200.17 12.3612C200.742 12.9332 201.19 13.6196 201.514 14.4205C201.838 15.2022 202 16.0507 202 16.966C202 17.3473 201.971 17.7096 201.914 18.0528C201.876 18.396 201.828 18.663 201.771 18.8537H191.303C191.513 20.0168 192.028 20.9225 192.848 21.5708C193.668 22.2191 194.678 22.5432 195.879 22.5432C196.699 22.5432 197.443 22.4002 198.11 22.1142C198.778 21.8091 199.397 21.3992 199.969 20.8843L201.428 22.9436C200.684 23.6491 199.845 24.2021 198.911 24.6025C197.977 25.0029 196.947 25.2031 195.822 25.2031C194.735 25.2031 193.725 25.022 192.79 24.6597C191.856 24.2783 191.055 23.7635 190.388 23.1152C189.721 22.4479 189.196 21.6661 188.815 20.7699C188.434 19.8738 188.243 18.9109 188.243 17.8812C188.243 16.8516 188.424 15.8887 188.786 14.9925C189.168 14.0963 189.682 13.3241 190.331 12.6758C190.998 12.0084 191.77 11.4841 192.647 11.1027C193.525 10.7214 194.478 10.5307 195.508 10.5307ZM195.422 13.0762C194.392 13.0762 193.515 13.3908 192.79 14.0201C192.066 14.6302 191.589 15.4597 191.36 16.5084H198.997C198.959 15.4025 198.587 14.554 197.881 13.9629C197.195 13.3718 196.375 13.0762 195.422 13.0762Z" fill="#2548C4"/>
</svg>
